<mxfile host="app.diagrams.net" modified="2024-06-04T07:38:43.523Z" agent="Mozilla/5.0 (Macintosh; Intel Mac OS X 10_15_7) AppleWebKit/537.36 (KHTML, like Gecko) Chrome/124.0.0.0 Safari/537.36" etag="--HtGGz01op7XPWgC_hP" version="24.4.13" type="device">
  <diagram id="C5RBs43oDa-KdzZeNtuy" name="Page-1">
    <mxGraphModel dx="1306" dy="909" grid="0" gridSize="10" guides="1" tooltips="1" connect="1" arrows="1" fold="1" page="1" pageScale="1" pageWidth="827" pageHeight="1169" math="0" shadow="0">
      <root>
        <mxCell id="WIyWlLk6GJQsqaUBKTNV-0" />
        <mxCell id="WIyWlLk6GJQsqaUBKTNV-1" parent="WIyWlLk6GJQsqaUBKTNV-0" />
        <mxCell id="6gy2ai8xuSV1-r_3bE68-2" value="&lt;font style=&quot;font-size: 16px;&quot;&gt;解析种子串&lt;/font&gt;" style="rounded=1;whiteSpace=wrap;html=1;fontSize=12;glass=0;strokeWidth=1;shadow=0;textDirection=vertical-lr;" vertex="1" parent="WIyWlLk6GJQsqaUBKTNV-1">
          <mxGeometry x="113" y="200" width="40" height="120" as="geometry" />
        </mxCell>
        <mxCell id="6gy2ai8xuSV1-r_3bE68-3" value="&lt;font style=&quot;font-size: 16px;&quot;&gt;开始&lt;/font&gt;" style="rounded=1;whiteSpace=wrap;html=1;fontSize=12;glass=0;strokeWidth=1;shadow=0;textDirection=vertical-lr;" vertex="1" parent="WIyWlLk6GJQsqaUBKTNV-1">
          <mxGeometry x="53" y="200" width="40" height="120" as="geometry" />
        </mxCell>
        <mxCell id="6gy2ai8xuSV1-r_3bE68-4" value="" style="endArrow=classic;html=1;rounded=0;entryX=0;entryY=0.5;entryDx=0;entryDy=0;" edge="1" parent="WIyWlLk6GJQsqaUBKTNV-1" source="6gy2ai8xuSV1-r_3bE68-3" target="6gy2ai8xuSV1-r_3bE68-2">
          <mxGeometry width="50" height="50" relative="1" as="geometry">
            <mxPoint x="603" y="510" as="sourcePoint" />
            <mxPoint x="653" y="460" as="targetPoint" />
          </mxGeometry>
        </mxCell>
        <mxCell id="6gy2ai8xuSV1-r_3bE68-5" value="&lt;font style=&quot;font-size: 16px;&quot;&gt;生成初始种群&lt;/font&gt;" style="rounded=1;whiteSpace=wrap;html=1;fontSize=12;glass=0;strokeWidth=1;shadow=0;textDirection=vertical-lr;" vertex="1" parent="WIyWlLk6GJQsqaUBKTNV-1">
          <mxGeometry x="173" y="185" width="40" height="150" as="geometry" />
        </mxCell>
        <mxCell id="6gy2ai8xuSV1-r_3bE68-8" value="" style="endArrow=classic;html=1;rounded=0;exitX=1;exitY=0.5;exitDx=0;exitDy=0;entryX=0;entryY=0.5;entryDx=0;entryDy=0;" edge="1" parent="WIyWlLk6GJQsqaUBKTNV-1" source="6gy2ai8xuSV1-r_3bE68-2" target="6gy2ai8xuSV1-r_3bE68-5">
          <mxGeometry width="50" height="50" relative="1" as="geometry">
            <mxPoint x="603" y="510" as="sourcePoint" />
            <mxPoint x="653" y="460" as="targetPoint" />
          </mxGeometry>
        </mxCell>
        <mxCell id="6gy2ai8xuSV1-r_3bE68-9" value="&lt;font style=&quot;font-size: 16px;&quot;&gt;随机排列子查询&lt;/font&gt;" style="rounded=1;whiteSpace=wrap;html=1;fontSize=12;glass=0;strokeWidth=1;shadow=0;textDirection=vertical-lr;" vertex="1" parent="WIyWlLk6GJQsqaUBKTNV-1">
          <mxGeometry x="233" y="185" width="40" height="150" as="geometry" />
        </mxCell>
        <mxCell id="6gy2ai8xuSV1-r_3bE68-10" value="" style="endArrow=classic;html=1;rounded=0;exitX=1;exitY=0.5;exitDx=0;exitDy=0;entryX=0;entryY=0.5;entryDx=0;entryDy=0;" edge="1" parent="WIyWlLk6GJQsqaUBKTNV-1" source="6gy2ai8xuSV1-r_3bE68-5" target="6gy2ai8xuSV1-r_3bE68-9">
          <mxGeometry width="50" height="50" relative="1" as="geometry">
            <mxPoint x="603" y="510" as="sourcePoint" />
            <mxPoint x="653" y="460" as="targetPoint" />
          </mxGeometry>
        </mxCell>
        <mxCell id="6gy2ai8xuSV1-r_3bE68-43" style="edgeStyle=orthogonalEdgeStyle;rounded=0;orthogonalLoop=1;jettySize=auto;html=1;entryX=0;entryY=0.5;entryDx=0;entryDy=0;" edge="1" parent="WIyWlLk6GJQsqaUBKTNV-1" source="6gy2ai8xuSV1-r_3bE68-11" target="6gy2ai8xuSV1-r_3bE68-42">
          <mxGeometry relative="1" as="geometry" />
        </mxCell>
        <mxCell id="6gy2ai8xuSV1-r_3bE68-11" value="&lt;font style=&quot;font-size: 16px;&quot;&gt;生成若干个体&lt;/font&gt;" style="rounded=1;whiteSpace=wrap;html=1;fontSize=12;glass=0;strokeWidth=1;shadow=0;textDirection=vertical-lr;" vertex="1" parent="WIyWlLk6GJQsqaUBKTNV-1">
          <mxGeometry x="293" y="200" width="40" height="120" as="geometry" />
        </mxCell>
        <mxCell id="6gy2ai8xuSV1-r_3bE68-12" value="" style="endArrow=classic;html=1;rounded=0;exitX=1;exitY=0.5;exitDx=0;exitDy=0;entryX=0;entryY=0.5;entryDx=0;entryDy=0;" edge="1" parent="WIyWlLk6GJQsqaUBKTNV-1" source="6gy2ai8xuSV1-r_3bE68-9" target="6gy2ai8xuSV1-r_3bE68-11">
          <mxGeometry width="50" height="50" relative="1" as="geometry">
            <mxPoint x="603" y="510" as="sourcePoint" />
            <mxPoint x="653" y="460" as="targetPoint" />
          </mxGeometry>
        </mxCell>
        <mxCell id="6gy2ai8xuSV1-r_3bE68-41" value="&lt;font style=&quot;font-size: 14px;&quot;&gt;否&lt;/font&gt;" style="text;html=1;align=center;verticalAlign=middle;resizable=0;points=[];autosize=1;strokeColor=none;fillColor=none;" vertex="1" parent="WIyWlLk6GJQsqaUBKTNV-1">
          <mxGeometry x="429" y="376" width="40" height="30" as="geometry" />
        </mxCell>
        <mxCell id="6gy2ai8xuSV1-r_3bE68-45" style="edgeStyle=orthogonalEdgeStyle;rounded=0;orthogonalLoop=1;jettySize=auto;html=1;entryX=0;entryY=0.5;entryDx=0;entryDy=0;exitX=0.5;exitY=0;exitDx=0;exitDy=0;" edge="1" parent="WIyWlLk6GJQsqaUBKTNV-1" source="6gy2ai8xuSV1-r_3bE68-42" target="6gy2ai8xuSV1-r_3bE68-44">
          <mxGeometry relative="1" as="geometry" />
        </mxCell>
        <mxCell id="6gy2ai8xuSV1-r_3bE68-55" style="edgeStyle=orthogonalEdgeStyle;rounded=0;orthogonalLoop=1;jettySize=auto;html=1;exitX=0.5;exitY=1;exitDx=0;exitDy=0;entryX=0;entryY=0.5;entryDx=0;entryDy=0;" edge="1" parent="WIyWlLk6GJQsqaUBKTNV-1" source="6gy2ai8xuSV1-r_3bE68-42" target="6gy2ai8xuSV1-r_3bE68-51">
          <mxGeometry relative="1" as="geometry" />
        </mxCell>
        <mxCell id="6gy2ai8xuSV1-r_3bE68-42" value="&lt;font style=&quot;font-size: 14px;&quot;&gt;达到最大代数？&lt;/font&gt;" style="rhombus;whiteSpace=wrap;html=1;" vertex="1" parent="WIyWlLk6GJQsqaUBKTNV-1">
          <mxGeometry x="350" y="220" width="134" height="80" as="geometry" />
        </mxCell>
        <mxCell id="6gy2ai8xuSV1-r_3bE68-49" style="edgeStyle=orthogonalEdgeStyle;rounded=0;orthogonalLoop=1;jettySize=auto;html=1;exitX=1;exitY=0.5;exitDx=0;exitDy=0;" edge="1" parent="WIyWlLk6GJQsqaUBKTNV-1" source="6gy2ai8xuSV1-r_3bE68-44" target="6gy2ai8xuSV1-r_3bE68-47">
          <mxGeometry relative="1" as="geometry" />
        </mxCell>
        <mxCell id="6gy2ai8xuSV1-r_3bE68-44" value="&lt;font style=&quot;font-size: 16px;&quot;&gt;输出最终优化解&lt;/font&gt;" style="rounded=1;whiteSpace=wrap;html=1;fontSize=12;glass=0;strokeWidth=1;shadow=0;textDirection=vertical-lr;" vertex="1" parent="WIyWlLk6GJQsqaUBKTNV-1">
          <mxGeometry x="486" y="58" width="40" height="150" as="geometry" />
        </mxCell>
        <mxCell id="6gy2ai8xuSV1-r_3bE68-46" value="&lt;font style=&quot;font-size: 14px;&quot;&gt;是&lt;/font&gt;" style="text;html=1;align=center;verticalAlign=middle;resizable=0;points=[];autosize=1;strokeColor=none;fillColor=none;" vertex="1" parent="WIyWlLk6GJQsqaUBKTNV-1">
          <mxGeometry x="422" y="102" width="32" height="29" as="geometry" />
        </mxCell>
        <mxCell id="6gy2ai8xuSV1-r_3bE68-50" style="edgeStyle=orthogonalEdgeStyle;rounded=0;orthogonalLoop=1;jettySize=auto;html=1;exitX=1;exitY=0.5;exitDx=0;exitDy=0;" edge="1" parent="WIyWlLk6GJQsqaUBKTNV-1" source="6gy2ai8xuSV1-r_3bE68-47" target="6gy2ai8xuSV1-r_3bE68-48">
          <mxGeometry relative="1" as="geometry" />
        </mxCell>
        <mxCell id="6gy2ai8xuSV1-r_3bE68-47" value="&lt;font style=&quot;font-size: 16px;&quot;&gt;找到适应度最高的个体&lt;/font&gt;" style="rounded=1;whiteSpace=wrap;html=1;fontSize=12;glass=0;strokeWidth=1;shadow=0;textDirection=vertical-lr;" vertex="1" parent="WIyWlLk6GJQsqaUBKTNV-1">
          <mxGeometry x="554" y="36" width="40" height="194" as="geometry" />
        </mxCell>
        <mxCell id="6gy2ai8xuSV1-r_3bE68-48" value="&lt;font style=&quot;font-size: 16px;&quot;&gt;输出最终查询调度&lt;/font&gt;" style="rounded=1;whiteSpace=wrap;html=1;fontSize=12;glass=0;strokeWidth=1;shadow=0;textDirection=vertical-lr;" vertex="1" parent="WIyWlLk6GJQsqaUBKTNV-1">
          <mxGeometry x="622" y="58" width="40" height="150" as="geometry" />
        </mxCell>
        <mxCell id="6gy2ai8xuSV1-r_3bE68-56" style="edgeStyle=orthogonalEdgeStyle;rounded=0;orthogonalLoop=1;jettySize=auto;html=1;exitX=1;exitY=0.5;exitDx=0;exitDy=0;entryX=0;entryY=0.5;entryDx=0;entryDy=0;" edge="1" parent="WIyWlLk6GJQsqaUBKTNV-1" source="6gy2ai8xuSV1-r_3bE68-51" target="6gy2ai8xuSV1-r_3bE68-52">
          <mxGeometry relative="1" as="geometry" />
        </mxCell>
        <mxCell id="6gy2ai8xuSV1-r_3bE68-51" value="&lt;font style=&quot;font-size: 16px;&quot;&gt;计算适应度&lt;/font&gt;" style="rounded=1;whiteSpace=wrap;html=1;fontSize=12;glass=0;strokeWidth=1;shadow=0;textDirection=vertical-lr;" vertex="1" parent="WIyWlLk6GJQsqaUBKTNV-1">
          <mxGeometry x="484" y="335" width="40" height="150" as="geometry" />
        </mxCell>
        <mxCell id="6gy2ai8xuSV1-r_3bE68-57" style="edgeStyle=orthogonalEdgeStyle;rounded=0;orthogonalLoop=1;jettySize=auto;html=1;exitX=1;exitY=0.5;exitDx=0;exitDy=0;entryX=0;entryY=0.5;entryDx=0;entryDy=0;" edge="1" parent="WIyWlLk6GJQsqaUBKTNV-1" source="6gy2ai8xuSV1-r_3bE68-52" target="6gy2ai8xuSV1-r_3bE68-53">
          <mxGeometry relative="1" as="geometry" />
        </mxCell>
        <mxCell id="6gy2ai8xuSV1-r_3bE68-52" value="&lt;font style=&quot;font-size: 16px;&quot;&gt;执行个体查询&lt;/font&gt;" style="rounded=1;whiteSpace=wrap;html=1;fontSize=12;glass=0;strokeWidth=1;shadow=0;textDirection=vertical-lr;" vertex="1" parent="WIyWlLk6GJQsqaUBKTNV-1">
          <mxGeometry x="554" y="335" width="40" height="150" as="geometry" />
        </mxCell>
        <mxCell id="6gy2ai8xuSV1-r_3bE68-58" style="edgeStyle=orthogonalEdgeStyle;rounded=0;orthogonalLoop=1;jettySize=auto;html=1;exitX=1;exitY=0.5;exitDx=0;exitDy=0;" edge="1" parent="WIyWlLk6GJQsqaUBKTNV-1" source="6gy2ai8xuSV1-r_3bE68-53" target="6gy2ai8xuSV1-r_3bE68-54">
          <mxGeometry relative="1" as="geometry" />
        </mxCell>
        <mxCell id="6gy2ai8xuSV1-r_3bE68-53" value="&lt;font style=&quot;font-size: 16px;&quot;&gt;记录执行时间&lt;/font&gt;" style="rounded=1;whiteSpace=wrap;html=1;fontSize=12;glass=0;strokeWidth=1;shadow=0;textDirection=vertical-lr;" vertex="1" parent="WIyWlLk6GJQsqaUBKTNV-1">
          <mxGeometry x="624" y="335" width="40" height="150" as="geometry" />
        </mxCell>
        <mxCell id="6gy2ai8xuSV1-r_3bE68-62" style="edgeStyle=orthogonalEdgeStyle;rounded=0;orthogonalLoop=1;jettySize=auto;html=1;exitX=0;exitY=0.5;exitDx=0;exitDy=0;entryX=1;entryY=0.5;entryDx=0;entryDy=0;" edge="1" parent="WIyWlLk6GJQsqaUBKTNV-1" source="6gy2ai8xuSV1-r_3bE68-54" target="6gy2ai8xuSV1-r_3bE68-59">
          <mxGeometry relative="1" as="geometry" />
        </mxCell>
        <mxCell id="6gy2ai8xuSV1-r_3bE68-54" value="&lt;font style=&quot;font-size: 16px;&quot;&gt;交叉产生子代&lt;/font&gt;" style="rounded=1;whiteSpace=wrap;html=1;fontSize=12;glass=0;strokeWidth=1;shadow=0;textDirection=vertical-lr;" vertex="1" parent="WIyWlLk6GJQsqaUBKTNV-1">
          <mxGeometry x="711" y="506" width="40" height="150" as="geometry" />
        </mxCell>
        <mxCell id="6gy2ai8xuSV1-r_3bE68-63" style="edgeStyle=orthogonalEdgeStyle;rounded=0;orthogonalLoop=1;jettySize=auto;html=1;exitX=0;exitY=0.5;exitDx=0;exitDy=0;" edge="1" parent="WIyWlLk6GJQsqaUBKTNV-1" source="6gy2ai8xuSV1-r_3bE68-59" target="6gy2ai8xuSV1-r_3bE68-60">
          <mxGeometry relative="1" as="geometry" />
        </mxCell>
        <mxCell id="6gy2ai8xuSV1-r_3bE68-59" value="&lt;font style=&quot;font-size: 16px;&quot;&gt;确定交叉点&lt;/font&gt;" style="rounded=1;whiteSpace=wrap;html=1;fontSize=12;glass=0;strokeWidth=1;shadow=0;textDirection=vertical-lr;" vertex="1" parent="WIyWlLk6GJQsqaUBKTNV-1">
          <mxGeometry x="645" y="506" width="40" height="150" as="geometry" />
        </mxCell>
        <mxCell id="6gy2ai8xuSV1-r_3bE68-64" style="edgeStyle=orthogonalEdgeStyle;rounded=0;orthogonalLoop=1;jettySize=auto;html=1;exitX=0;exitY=0.5;exitDx=0;exitDy=0;" edge="1" parent="WIyWlLk6GJQsqaUBKTNV-1" source="6gy2ai8xuSV1-r_3bE68-60" target="6gy2ai8xuSV1-r_3bE68-61">
          <mxGeometry relative="1" as="geometry" />
        </mxCell>
        <mxCell id="6gy2ai8xuSV1-r_3bE68-60" value="&lt;font style=&quot;font-size: 16px;&quot;&gt;生成新个体&lt;/font&gt;" style="rounded=1;whiteSpace=wrap;html=1;fontSize=12;glass=0;strokeWidth=1;shadow=0;textDirection=vertical-lr;" vertex="1" parent="WIyWlLk6GJQsqaUBKTNV-1">
          <mxGeometry x="579" y="506" width="40" height="150" as="geometry" />
        </mxCell>
        <mxCell id="6gy2ai8xuSV1-r_3bE68-66" style="edgeStyle=orthogonalEdgeStyle;rounded=0;orthogonalLoop=1;jettySize=auto;html=1;" edge="1" parent="WIyWlLk6GJQsqaUBKTNV-1" source="6gy2ai8xuSV1-r_3bE68-61" target="6gy2ai8xuSV1-r_3bE68-65">
          <mxGeometry relative="1" as="geometry" />
        </mxCell>
        <mxCell id="6gy2ai8xuSV1-r_3bE68-61" value="&lt;font style=&quot;font-size: 16px;&quot;&gt;变异操作&lt;/font&gt;" style="rounded=1;whiteSpace=wrap;html=1;fontSize=12;glass=0;strokeWidth=1;shadow=0;textDirection=vertical-lr;" vertex="1" parent="WIyWlLk6GJQsqaUBKTNV-1">
          <mxGeometry x="517" y="506" width="40" height="150" as="geometry" />
        </mxCell>
        <mxCell id="6gy2ai8xuSV1-r_3bE68-68" style="edgeStyle=orthogonalEdgeStyle;rounded=0;orthogonalLoop=1;jettySize=auto;html=1;" edge="1" parent="WIyWlLk6GJQsqaUBKTNV-1" source="6gy2ai8xuSV1-r_3bE68-65" target="6gy2ai8xuSV1-r_3bE68-67">
          <mxGeometry relative="1" as="geometry" />
        </mxCell>
        <mxCell id="6gy2ai8xuSV1-r_3bE68-65" value="&lt;font style=&quot;font-size: 16px;&quot;&gt;随机选择个体&lt;/font&gt;" style="rounded=1;whiteSpace=wrap;html=1;fontSize=12;glass=0;strokeWidth=1;shadow=0;textDirection=vertical-lr;" vertex="1" parent="WIyWlLk6GJQsqaUBKTNV-1">
          <mxGeometry x="454" y="506" width="40" height="150" as="geometry" />
        </mxCell>
        <mxCell id="6gy2ai8xuSV1-r_3bE68-70" style="edgeStyle=orthogonalEdgeStyle;rounded=0;orthogonalLoop=1;jettySize=auto;html=1;" edge="1" parent="WIyWlLk6GJQsqaUBKTNV-1" source="6gy2ai8xuSV1-r_3bE68-67" target="6gy2ai8xuSV1-r_3bE68-69">
          <mxGeometry relative="1" as="geometry" />
        </mxCell>
        <mxCell id="6gy2ai8xuSV1-r_3bE68-67" value="&lt;font style=&quot;font-size: 16px;&quot;&gt;交换基因位置&lt;/font&gt;" style="rounded=1;whiteSpace=wrap;html=1;fontSize=12;glass=0;strokeWidth=1;shadow=0;textDirection=vertical-lr;" vertex="1" parent="WIyWlLk6GJQsqaUBKTNV-1">
          <mxGeometry x="391" y="506" width="40" height="150" as="geometry" />
        </mxCell>
        <mxCell id="6gy2ai8xuSV1-r_3bE68-72" style="edgeStyle=orthogonalEdgeStyle;rounded=0;orthogonalLoop=1;jettySize=auto;html=1;exitX=0;exitY=0.5;exitDx=0;exitDy=0;entryX=1;entryY=0.5;entryDx=0;entryDy=0;" edge="1" parent="WIyWlLk6GJQsqaUBKTNV-1" source="6gy2ai8xuSV1-r_3bE68-69" target="6gy2ai8xuSV1-r_3bE68-71">
          <mxGeometry relative="1" as="geometry" />
        </mxCell>
        <mxCell id="6gy2ai8xuSV1-r_3bE68-69" value="&lt;font style=&quot;font-size: 16px;&quot;&gt;更新种群&lt;/font&gt;" style="rounded=1;whiteSpace=wrap;html=1;fontSize=12;glass=0;strokeWidth=1;shadow=0;textDirection=vertical-lr;" vertex="1" parent="WIyWlLk6GJQsqaUBKTNV-1">
          <mxGeometry x="328" y="506" width="40" height="150" as="geometry" />
        </mxCell>
        <mxCell id="6gy2ai8xuSV1-r_3bE68-74" style="edgeStyle=orthogonalEdgeStyle;rounded=0;orthogonalLoop=1;jettySize=auto;html=1;exitX=0;exitY=0.5;exitDx=0;exitDy=0;entryX=1;entryY=0.5;entryDx=0;entryDy=0;" edge="1" parent="WIyWlLk6GJQsqaUBKTNV-1" source="6gy2ai8xuSV1-r_3bE68-71" target="6gy2ai8xuSV1-r_3bE68-73">
          <mxGeometry relative="1" as="geometry" />
        </mxCell>
        <mxCell id="6gy2ai8xuSV1-r_3bE68-71" value="&lt;font style=&quot;font-size: 16px;&quot;&gt;子代加入种群&lt;/font&gt;" style="rounded=1;whiteSpace=wrap;html=1;fontSize=12;glass=0;strokeWidth=1;shadow=0;textDirection=vertical-lr;" vertex="1" parent="WIyWlLk6GJQsqaUBKTNV-1">
          <mxGeometry x="265" y="506" width="40" height="150" as="geometry" />
        </mxCell>
        <mxCell id="6gy2ai8xuSV1-r_3bE68-75" style="edgeStyle=orthogonalEdgeStyle;rounded=0;orthogonalLoop=1;jettySize=auto;html=1;exitX=0;exitY=0.5;exitDx=0;exitDy=0;entryX=0.5;entryY=1;entryDx=0;entryDy=0;" edge="1" parent="WIyWlLk6GJQsqaUBKTNV-1" source="6gy2ai8xuSV1-r_3bE68-73" target="6gy2ai8xuSV1-r_3bE68-11">
          <mxGeometry relative="1" as="geometry" />
        </mxCell>
        <mxCell id="6gy2ai8xuSV1-r_3bE68-73" value="&lt;font style=&quot;font-size: 16px;&quot;&gt;选择适应度最高的个体组成新种群&lt;/font&gt;" style="rounded=1;whiteSpace=wrap;html=1;fontSize=12;glass=0;strokeWidth=1;shadow=0;textDirection=vertical-lr;" vertex="1" parent="WIyWlLk6GJQsqaUBKTNV-1">
          <mxGeometry x="202" y="506" width="40" height="150" as="geometry" />
        </mxCell>
        <mxCell id="6gy2ai8xuSV1-r_3bE68-76" value="" style="rounded=0;whiteSpace=wrap;html=1;fillColor=#dae8fc;strokeColor=#6c8ebf;opacity=50;" vertex="1" parent="WIyWlLk6GJQsqaUBKTNV-1">
          <mxGeometry x="122" y="492" width="702" height="221" as="geometry" />
        </mxCell>
        <mxCell id="6gy2ai8xuSV1-r_3bE68-77" value="&lt;font style=&quot;font-size: 16px;&quot;&gt;遗传迭代过程&lt;/font&gt;" style="text;html=1;align=center;verticalAlign=middle;resizable=0;points=[];autosize=1;strokeColor=none;fillColor=none;" vertex="1" parent="WIyWlLk6GJQsqaUBKTNV-1">
          <mxGeometry x="396" y="677" width="114" height="31" as="geometry" />
        </mxCell>
      </root>
    </mxGraphModel>
  </diagram>
</mxfile>
